<mxfile host="app.diagrams.net" modified="2023-05-10T20:18:40.086Z" agent="Mozilla/5.0 (Windows NT 10.0; Win64; x64) AppleWebKit/537.36 (KHTML, like Gecko) Chrome/112.0.0.0 Safari/537.36" version="21.2.9" etag="nQ6uOpTzWm-SURfay2y3" type="device">
  <diagram id="QAeiTj31CXuwRWlYtDKq" name="Page-1">
    <mxGraphModel dx="500" dy="348" grid="1" gridSize="10" guides="1" tooltips="1" connect="1" arrows="1" fold="1" page="1" pageScale="1" pageWidth="850" pageHeight="1100" math="0" shadow="0">
      <root>
        <mxCell id="0" />
        <mxCell id="1" parent="0" />
        <mxCell id="2eQEjGPcr4VcOKyJf2eb-33" value="" style="verticalLabelPosition=bottom;verticalAlign=top;html=1;shape=mxgraph.basic.patternFillRect;fillStyle=grid;step=5;fillStrokeWidth=0.2;fillStrokeColor=#dddddd;fillColor=#EDEDED;strokeColor=#666666;gradientColor=#FFFFFF;gradientDirection=south;" vertex="1" parent="1">
          <mxGeometry x="185" y="170" width="130" height="90" as="geometry" />
        </mxCell>
        <mxCell id="2eQEjGPcr4VcOKyJf2eb-34" value="" style="verticalLabelPosition=bottom;verticalAlign=top;html=1;shape=mxgraph.basic.patternFillRect;fillStyle=grid;step=5;fillStrokeWidth=0.2;fillStrokeColor=#dddddd;fillColor=#9DC4EC;strokeColor=#000000;" vertex="1" parent="1">
          <mxGeometry x="185" y="260" width="130" height="90" as="geometry" />
        </mxCell>
        <mxCell id="2eQEjGPcr4VcOKyJf2eb-2" value="" style="rounded=0;whiteSpace=wrap;html=1;fillColor=#9DC4EC;glass=0;shadow=0;" vertex="1" parent="1">
          <mxGeometry x="365" y="170" width="140" height="180" as="geometry" />
        </mxCell>
        <mxCell id="2eQEjGPcr4VcOKyJf2eb-6" value="" style="shape=mxgraph.pid.vessels.gas_bottle;html=1;pointerEvents=1;align=center;verticalLabelPosition=bottom;verticalAlign=top;dashed=0;fillColor=#f5f5f5;fontColor=#333333;strokeColor=#666666;" vertex="1" parent="1">
          <mxGeometry x="195" y="267" width="10" height="25" as="geometry" />
        </mxCell>
        <mxCell id="2eQEjGPcr4VcOKyJf2eb-7" value="" style="shape=mxgraph.pid.vessels.gas_bottle;html=1;pointerEvents=1;align=center;verticalLabelPosition=bottom;verticalAlign=top;dashed=0;fillColor=#f5f5f5;fontColor=#333333;strokeColor=#666666;" vertex="1" parent="1">
          <mxGeometry x="376" y="180" width="10" height="25" as="geometry" />
        </mxCell>
        <mxCell id="2eQEjGPcr4VcOKyJf2eb-10" value="&lt;b&gt;&lt;font style=&quot;font-size: 11px;&quot;&gt;Image frame&lt;/font&gt;&lt;/b&gt;" style="text;html=1;align=center;verticalAlign=middle;resizable=0;points=[];autosize=1;strokeColor=none;fillColor=none;" vertex="1" parent="1">
          <mxGeometry x="208" y="144" width="90" height="30" as="geometry" />
        </mxCell>
        <mxCell id="2eQEjGPcr4VcOKyJf2eb-11" value="&lt;b&gt;&lt;font style=&quot;font-size: 11px;&quot;&gt;Relative coordinate frame&lt;/font&gt;&lt;/b&gt;" style="text;html=1;align=center;verticalAlign=middle;resizable=0;points=[];autosize=1;strokeColor=none;fillColor=none;" vertex="1" parent="1">
          <mxGeometry x="355" y="144" width="160" height="30" as="geometry" />
        </mxCell>
        <mxCell id="2eQEjGPcr4VcOKyJf2eb-12" value="" style="shape=flexArrow;endArrow=classic;html=1;rounded=0;fillColor=#000000;width=1.9047619047619047;endSize=4.233333333333333;endWidth=10.997732426303854;" edge="1" parent="1">
          <mxGeometry width="50" height="50" relative="1" as="geometry">
            <mxPoint x="320" y="269.76" as="sourcePoint" />
            <mxPoint x="360" y="270" as="targetPoint" />
          </mxGeometry>
        </mxCell>
        <mxCell id="2eQEjGPcr4VcOKyJf2eb-13" value="Platform" style="whiteSpace=wrap;html=1;fillColor=#647687;fontColor=#ffffff;strokeColor=#314354;" vertex="1" parent="1">
          <mxGeometry x="408.75" y="320" width="52.5" height="30" as="geometry" />
        </mxCell>
        <mxCell id="2eQEjGPcr4VcOKyJf2eb-14" value="" style="endArrow=classic;html=1;rounded=0;" edge="1" parent="1">
          <mxGeometry width="50" height="50" relative="1" as="geometry">
            <mxPoint x="435" y="320" as="sourcePoint" />
            <mxPoint x="435" y="283" as="targetPoint" />
          </mxGeometry>
        </mxCell>
        <mxCell id="2eQEjGPcr4VcOKyJf2eb-16" value="" style="endArrow=classic;html=1;rounded=0;exitX=0.5;exitY=0;exitDx=0;exitDy=0;dashed=1;entryX=1.128;entryY=1.067;entryDx=0;entryDy=0;entryPerimeter=0;dashPattern=1 1;" edge="1" parent="1" source="2eQEjGPcr4VcOKyJf2eb-13" target="2eQEjGPcr4VcOKyJf2eb-7">
          <mxGeometry width="50" height="50" relative="1" as="geometry">
            <mxPoint x="335" y="315" as="sourcePoint" />
            <mxPoint x="385" y="265" as="targetPoint" />
          </mxGeometry>
        </mxCell>
        <mxCell id="2eQEjGPcr4VcOKyJf2eb-17" value="" style="endArrow=none;dashed=1;html=1;strokeWidth=1;rounded=0;" edge="1" parent="1">
          <mxGeometry width="50" height="50" relative="1" as="geometry">
            <mxPoint x="385" y="320" as="sourcePoint" />
            <mxPoint x="413" y="320" as="targetPoint" />
          </mxGeometry>
        </mxCell>
        <mxCell id="2eQEjGPcr4VcOKyJf2eb-18" value="" style="endArrow=none;dashed=1;html=1;strokeWidth=1;rounded=0;entryX=-0.016;entryY=0.165;entryDx=0;entryDy=0;entryPerimeter=0;" edge="1" parent="1">
          <mxGeometry width="50" height="50" relative="1" as="geometry">
            <mxPoint x="386" y="206" as="sourcePoint" />
            <mxPoint x="385.5200000000001" y="318.95000000000005" as="targetPoint" />
          </mxGeometry>
        </mxCell>
        <mxCell id="2eQEjGPcr4VcOKyJf2eb-20" value="&lt;b&gt;Y&lt;/b&gt;" style="text;html=1;align=center;verticalAlign=middle;resizable=0;points=[];autosize=1;strokeColor=none;fillColor=none;" vertex="1" parent="1">
          <mxGeometry x="360" y="250" width="30" height="30" as="geometry" />
        </mxCell>
        <mxCell id="2eQEjGPcr4VcOKyJf2eb-25" value="&lt;b style=&quot;font-size: 8px;&quot;&gt;Camera&lt;br&gt;direction&lt;br&gt;&lt;/b&gt;" style="text;html=1;align=center;verticalAlign=middle;resizable=0;points=[];autosize=1;strokeColor=none;fillColor=none;fontSize=10;" vertex="1" parent="1">
          <mxGeometry x="425" y="280" width="60" height="40" as="geometry" />
        </mxCell>
        <mxCell id="2eQEjGPcr4VcOKyJf2eb-35" value="&lt;b&gt;X&lt;/b&gt;" style="text;html=1;align=center;verticalAlign=middle;resizable=0;points=[];autosize=1;strokeColor=none;fillColor=none;" vertex="1" parent="1">
          <mxGeometry x="392" y="296" width="30" height="30" as="geometry" />
        </mxCell>
        <mxCell id="2eQEjGPcr4VcOKyJf2eb-37" value="" style="rounded=0;whiteSpace=wrap;html=1;fillColor=#e51400;fontColor=#ffffff;strokeColor=#B20000;" vertex="1" parent="1">
          <mxGeometry x="201" y="288" width="4" height="4" as="geometry" />
        </mxCell>
        <mxCell id="2eQEjGPcr4VcOKyJf2eb-39" value="" style="endArrow=classic;html=1;rounded=0;strokeWidth=1;dashed=1;dashPattern=1 2;" edge="1" parent="1">
          <mxGeometry width="50" height="50" relative="1" as="geometry">
            <mxPoint x="203" y="290" as="sourcePoint" />
            <mxPoint x="237" y="245" as="targetPoint" />
          </mxGeometry>
        </mxCell>
        <mxCell id="2eQEjGPcr4VcOKyJf2eb-40" value="&lt;font style=&quot;font-size: 10px;&quot;&gt;&lt;b&gt;Pixel&amp;nbsp;(x, y)&lt;/b&gt;&lt;/font&gt;" style="text;html=1;align=center;verticalAlign=middle;resizable=0;points=[];autosize=1;strokeColor=none;fillColor=none;" vertex="1" parent="1">
          <mxGeometry x="205" y="222" width="70" height="30" as="geometry" />
        </mxCell>
        <mxCell id="2eQEjGPcr4VcOKyJf2eb-42" value="" style="rounded=0;whiteSpace=wrap;html=1;fillColor=#e51400;fontColor=#ffffff;strokeColor=#B20000;" vertex="1" parent="1">
          <mxGeometry x="382" y="201" width="4" height="4" as="geometry" />
        </mxCell>
        <mxCell id="2eQEjGPcr4VcOKyJf2eb-62" value="" style="verticalLabelPosition=bottom;html=1;verticalAlign=top;strokeWidth=2;shape=mxgraph.lean_mapping.boat_shipment;align=center;" vertex="1" parent="1">
          <mxGeometry x="286" y="240" width="14" height="20" as="geometry" />
        </mxCell>
      </root>
    </mxGraphModel>
  </diagram>
</mxfile>
